<?xml version="1.0" standalone="no"?>
<!DOCTYPE svg PUBLIC "-//W3C//DTD SVG 20010904//EN"
 "http://www.w3.org/TR/2001/REC-SVG-20010904/DTD/svg10.dtd">
<svg version="1.0" xmlns="http://www.w3.org/2000/svg"
 width="700.000000pt" height="700.000000pt" viewBox="0 0 700.000000 700.000000"
 preserveAspectRatio="xMidYMid meet">
<metadata>
Created by potrace 1.14, written by Peter Selinger 2001-2017
</metadata>
<g transform="translate(0.000000,700.000000) scale(0.100000,-0.100000)"
fill="#000000" stroke="none">
<path d="M1746 6034 c-15 -14 -15 -60 0 -134 1 -8 3 -28 3 -45 2 -49 13 -58
72 -55 148 6 477 -3 538 -15 9 -2 45 -6 81 -10 69 -7 109 -12 150 -20 14 -3
41 -7 60 -9 135 -17 589 -127 685 -166 11 -5 47 -18 80 -29 399 -134 831 -366
1180 -631 61 -46 115 -88 122 -94 6 -6 56 -49 112 -96 99 -84 320 -302 434
-430 32 -36 100 -119 150 -184 190 -247 185 -243 245 -206 l32 20 0 117 c0
115 -1 119 -28 148 -15 17 -47 57 -72 89 -25 33 -93 114 -151 180 -698 795
-1608 1314 -2649 1511 -8 1 -37 6 -63 9 -27 4 -58 9 -69 11 -11 3 -46 7 -77
11 -31 3 -65 8 -76 11 -11 2 -58 6 -105 9 -47 3 -98 9 -114 15 -16 5 -140 9
-277 9 -212 0 -250 -2 -263 -16z"/>
<path d="M1755 5577 c-3 -7 -3 -34 -1 -62 3 -27 5 -71 5 -97 1 -70 12 -76 143
-76 113 0 281 -9 328 -17 14 -2 48 -7 75 -10 111 -12 142 -16 195 -25 30 -5
73 -12 95 -15 22 -4 56 -10 75 -15 19 -5 49 -11 65 -14 72 -13 281 -68 400
-106 386 -123 722 -284 1040 -499 86 -58 269 -196 324 -246 282 -250 486 -482
677 -769 31 -47 63 -86 70 -86 15 0 125 67 167 102 l29 23 -77 115 c-238 353
-544 681 -871 931 -444 340 -964 590 -1529 734 -71 18 -146 36 -166 39 -20 3
-42 8 -50 10 -38 14 -353 61 -479 72 -153 13 -201 16 -348 19 -119 3 -164 1
-167 -8z"/>
<path d="M1770 5132 c-14 -2 -29 -7 -34 -12 -7 -7 5 -136 19 -206 5 -21 9 -22
167 -21 167 1 308 -6 433 -24 39 -5 88 -12 110 -14 22 -3 51 -8 65 -10 14 -3
36 -7 50 -10 20 -4 118 -25 140 -30 3 -1 21 -5 40 -9 130 -29 456 -138 590
-198 517 -232 958 -568 1331 -1013 19 -22 36 -42 39 -45 3 -3 41 -52 84 -110
43 -58 84 -108 91 -112 7 -5 31 5 56 23 24 17 63 42 86 57 23 15 44 33 46 42
4 21 -35 77 -170 245 -157 195 -399 442 -563 574 -30 25 -59 49 -65 55 -20 21
-205 156 -214 156 -5 0 -11 4 -13 9 -6 17 -258 167 -413 246 -250 128 -458
209 -721 284 -77 21 -154 42 -170 45 -16 2 -38 7 -49 9 -11 3 -40 8 -65 13
-25 4 -47 8 -50 9 -3 1 -30 5 -60 9 -30 5 -62 10 -70 11 -13 2 -72 10 -180 22
-50 6 -480 10 -510 5z"/>
<path d="M1782 4729 c-25 -10 -25 4 -6 -171 4 -32 9 -59 13 -59 3 -1 85 -3
181 -4 254 -3 345 -11 555 -50 484 -90 939 -295 1326 -597 133 -104 148 -117
290 -258 142 -141 258 -275 372 -433 44 -59 81 -107 85 -107 3 0 45 26 94 58
64 41 88 63 88 78 0 27 -114 183 -250 343 -438 515 -1000 882 -1639 1071 -57
16 -114 32 -125 35 -58 12 -223 47 -241 51 -11 2 -40 7 -65 10 -25 3 -56 7
-70 10 -14 2 -52 6 -85 10 -33 3 -71 8 -85 10 -49 10 -415 12 -438 3z"/>
<path d="M1790 4332 c-32 -11 -32 -13 -14 -182 2 -24 8 -48 12 -52 4 -4 72 -8
152 -9 80 -1 174 -5 210 -10 36 -4 90 -10 120 -13 52 -6 77 -10 145 -21 32 -5
50 -9 135 -26 81 -16 90 -19 90 -35 0 -13 -55 -123 -260 -519 -137 -265 -264
-513 -410 -800 -78 -154 -146 -284 -150 -290 -44 -60 -201 -400 -217 -470 -21
-95 -22 -120 -8 -180 14 -60 31 -95 48 -95 7 0 29 35 49 78 21 42 111 221 201
397 221 432 544 1067 753 1480 95 187 179 344 187 349 19 12 137 -31 137 -50
0 -8 -53 -119 -119 -247 -65 -127 -209 -412 -321 -632 -111 -220 -207 -406
-213 -412 -5 -7 -6 -13 -2 -13 4 0 3 -6 -3 -12 -5 -7 -70 -130 -142 -273 -73
-143 -173 -339 -223 -435 -150 -288 -159 -308 -161 -352 -3 -50 29 -122 71
-164 44 -42 144 -85 200 -85 110 -2 106 -3 134 54 24 49 162 318 289 562 32
61 95 182 140 270 46 88 97 187 115 220 18 33 76 146 130 250 54 105 108 208
120 230 12 22 78 148 145 280 68 132 126 245 130 250 4 6 40 74 80 153 60 117
77 142 95 142 24 0 49 -24 59 -57 7 -21 -110 -262 -868 -1782 -141 -283 -256
-521 -256 -529 0 -11 8 -13 37 -7 62 11 115 45 186 117 67 68 71 75 331 601
243 490 447 905 647 1314 44 89 84 165 90 169 15 9 44 -14 166 -132 130 -127
265 -293 343 -424 30 -51 65 -103 77 -116 l23 -25 91 48 c50 26 94 54 97 62 7
18 -17 63 -102 191 -295 449 -693 775 -1201 985 -125 52 -298 111 -380 130
-11 3 -65 16 -120 29 -55 13 -113 27 -130 29 -107 18 -167 27 -215 33 -30 4
-66 8 -80 10 -116 14 -413 25 -440 16z"/>
</g>
</svg>
