<?xml version="1.0" encoding="utf-8"?>
<!-- Generator: Adobe Illustrator 27.8.1, SVG Export Plug-In . SVG Version: 6.00 Build 0)  -->
<svg version="1.1" id="Laag_1" xmlns="http://www.w3.org/2000/svg" xmlns:xlink="http://www.w3.org/1999/xlink" x="0px" y="0px"
	 viewBox="0 0 595.28 841.89" style="enable-background:new 0 0 595.28 841.89;" xml:space="preserve">
<style type="text/css">
	.st0{fill:#FEFEFE;}
	.st1{fill:#7F7F7F;}
	.st2{fill:#808080;}
</style>
<g>
	<path class="st0" d="M132.07,630.8c-20.66,0-41.32,0-61.98,0c0-181.1,0.01-362.2-0.09-543.3c0-3.75,0.83-4.71,4.59-4.6
		c10.15,0.3,20.32,0.1,30.49,0.1c-1.29,5.64-1.32,11.28-0.54,17.02c1.08,7.96,2.19,9.83,10.6,8.94c9.88-1.05,19.91-0.62,29.92,0.17
		c10.6,0.84,21.24,1.22,31.84,2.28c31.08,3.13,61.59,9.16,91.52,17.96c31.23,9.19,61.4,21.11,90.31,36.16
		c34.57,17.99,66.66,39.6,96.08,65.2c30.91,26.89,58.45,56.83,82.43,90.05c1.08,1.49,2.32,2.84,3.51,4.23
		c1.89,2.19,4.11,2.81,6.65,1.29c1.81-1.08,3.55-1.93,5.5-0.39c0,100.3-0.02,200.59,0.1,300.89c0,3.42-0.67,4.1-4.09,4.09
		c-132.95-0.11-265.9-0.09-398.84-0.09c-2.37-2.1-1.1-4.32-0.01-6.34c9.39-17.45,18.18-35.21,27.45-52.72
		c6.15-11.62,12.11-23.35,18.19-35c9.16-17.57,18.41-35.1,27.44-52.73c20.2-39.42,40.91-78.59,61.1-118.01
		c1.67-3.26,3.56-6.41,5.4-9.57c2.27-3.91,4.73-4.51,8.77-2.4c1.63,0.85,3.05,2.03,4.59,3.01c3.31,2.1,3.74,4.85,2.04,8.16
		c-4.66,9.03-8.52,18.44-13.15,27.49c-11.83,23.12-23.2,46.47-34.88,69.67c-16.48,32.73-32.7,65.59-49.26,98.29
		c-9.7,19.16-19.24,38.41-28.34,57.87c-0.62,1.32-1.7,2.84-0.21,4.09c1.34,1.12,2.89,0.23,4.23-0.39
		c11.13-5.07,18.62-13.89,24.22-24.36c8.56-16.01,16.39-32.4,24.36-48.7c10.32-21.09,20.79-42.1,31.12-63.19
		c17.28-35.3,34.8-70.48,52-105.82c4.85-9.97,5.9-10.29,14.31-3.21c19.88,16.73,36.72,36.17,50.84,57.99
		c2.62,4.05,5.11,8.19,7.63,12.3c1.78,2.91,4.17,3.61,7.24,2.19c3.48-1.61,6.91-3.32,10.14-5.4c4.24-2.74,4.48-3.62,2.07-8.05
		c-7.84-14.38-17.28-27.66-27.58-40.35c-23.61-29.08-52.21-52.07-84.98-70.13c-38.13-21.01-79.08-33.31-121.88-39.77
		c-19.24-2.91-38.67-4.41-58.18-4.32c-7.04,0.03-7.66,0.75-7.28,7.83c0.18,3.32,0.1,6.64,0.77,9.95c0.7,3.49,2.5,5.26,6.11,5.27
		c9.65,0.01,19.28,0.2,28.93,0.93c19.8,1.5,39.38,4.19,58.64,9.01c5.81,1.45,6.79,3.62,4.05,9.09
		c-8.94,17.87-18.23,35.56-27.33,53.36c-9.32,18.24-18.75,36.43-28.07,54.67c-15.23,29.8-30.56,59.56-45.87,89.32
		c-6.64,12.92-13.56,25.62-17.12,39.8c-1.57,6.24-1.77,12.51,0.52,18.66c0.45,1.21,0.74,2.81,2.37,2.88
		c1.58,0.06,2.19-1.48,2.71-2.62c2.07-4.55,4.71-8.81,6.91-13.29c17.3-35.11,35.34-69.85,53.07-104.75
		c19.77-38.9,39.47-77.84,59.38-116.67c3.19-6.22,6.54-12.36,9.68-18.6c2.29-4.55,3.99-5.12,8.91-3.7c3.52,1.01,6.99,2.17,10.3,3.79
		c3.29,1.62,4.38,3.89,2.63,7.28c-11.48,22.19-22.2,44.76-33.88,66.86c-9.57,18.11-18.22,36.7-27.79,54.82
		c-11.59,21.94-22.15,44.41-33.77,66.34c-9.13,17.22-17.4,34.88-26.35,52.19c-3.9,7.54-7.9,15.04-11.78,22.59
		c-2.56,4.97-2.28,9.46,0.33,14.22c3.99,7.3,9.36,12.87,17.47,15.5C130.41,626.83,133.05,627.43,132.07,630.8z"/>
	<path class="st1" d="M132.07,630.8c-1.12-1.75-3.1-1.79-4.79-2.39c-5.95-2.11-11.04-5.43-14.84-10.54
		c-6.01-8.07-8.23-15.45-2.71-25.88c23.52-44.44,45.94-89.47,68.72-134.3c21.05-41.42,42.03-82.87,63.13-124.26
		c1.57-3.07,0.97-4.38-2.17-5.43c-16.35-5.51-11.94-6.84-19.24,7.42c-20.57,40.17-40.85,80.49-61.3,120.71
		c-21.96,43.19-43.99,86.35-66,129.52c-0.59,1.16-0.8,2.99-2.17,3.14c-1.77,0.2-2.23-1.79-2.85-3.02
		c-4.2-8.33-5.05-16.99-2.64-26.06c6.81-25.61,21.51-47.54,33.18-70.85c22.74-45.41,46.26-90.42,69.46-135.6
		c5.33-10.37,10.55-20.79,16.04-31.07c1.72-3.22,1.44-4.59-2.35-5.46c-19.01-4.41-38.22-7.28-57.67-8.84
		c-11.14-0.89-22.29-1.01-33.44-0.87c-3.16,0.04-4.39-0.95-4.55-4.21c-0.28-5.81-0.8-11.63-1.65-17.39
		c-0.69-4.66,0.96-6.26,5.55-6.36c18.52-0.42,36.95,0.82,55.3,3.11c41.8,5.22,81.92,16.35,119.71,35.21
		c54.59,27.26,96.98,67.4,126.83,120.7c1.73,3.09,1.91,4.81-1.71,6.48c-5.28,2.44-10.44,5.22-15.42,8.23
		c-3.71,2.25-5.64,1.61-7.75-2.24c-11.86-21.59-26.75-40.96-44.11-58.39c-5.39-5.42-11.49-10.12-16.99-15.43
		c-3.33-3.21-4.9-2.49-6.78,1.39c-9.21,19.04-18.62,37.98-27.96,56.96c-25.89,52.6-51.75,105.2-77.68,157.77
		c-5.13,10.39-11.5,19.88-20.91,27.01c-4.03,3.05-8.41,5.39-13.35,6.56c-1.76,0.42-4.02,1.19-5.2-0.28
		c-1.05-1.32,0.49-3.1,1.22-4.56c8.85-17.89,17.7-35.78,26.59-53.66c22.98-46.21,45.96-92.41,68.96-138.61
		c10.39-20.87,20.81-41.72,31.2-62.58c2.58-5.18-1.12-11.44-6.95-11.72c-2.65-0.13-3.05,2.29-3.91,3.94
		c-8.02,15.35-15.96,30.74-23.95,46.11c-27.65,53.18-55.31,106.35-82.95,159.53c-10.9,20.98-21.78,41.97-32.65,62.97
		c-0.53,1.02-0.85,2.16-1.27,3.24C144.06,630.8,138.07,630.8,132.07,630.8z"/>
	<path class="st0" d="M160.06,83c129.45,0,258.9,0.02,388.35-0.09c3.75,0,4.6,0.84,4.59,4.59c-0.13,70.14-0.1,140.28-0.1,210.42
		c-3.14,1.63-4.6-0.79-6.1-2.7c-9.61-12.13-19.4-24.08-29.79-35.57c-16.09-17.79-33.19-34.48-51.54-49.93
		c-19.89-16.75-40.82-32.04-62.95-45.71c-38.87-24.01-80.18-42.53-123.9-55.78c-30.99-9.39-62.6-15.66-94.71-19.45
		c-5.76-0.68-11.56-1.29-17.38-1.54C163.89,87.13,160.18,87.47,160.06,83z"/>
	<path class="st2" d="M160.06,83c6.15,3.26,13,2.08,19.48,2.77c40.06,4.26,79.19,12.66,117.31,25.63
		c32.72,11.13,64.01,25.4,93.95,42.73c29.05,16.82,56.25,36.2,81.55,58.21c25.17,21.9,48.15,45.93,68.98,72.02
		c3.7,4.63,6.67,9.94,11.57,13.56c0,9.33,0,18.66,0,27.99c-0.16,0.06-0.33,0.09-0.47,0.17c-9.99,5.79-10.08,5.85-16.98-3.7
		c-19.04-26.38-40.24-50.91-63.86-73.25c-70.74-66.92-154.06-109.48-249.56-128.37c-33.07-6.54-66.43-9.79-100.12-9.56
		c-4.81,0.03-9.63,0.47-14.44,0.82c-2.86,0.2-4.22-0.8-4.46-3.85c-0.46-5.8-1.07-11.6-2.02-17.33c-0.64-3.88,0.11-6.58,4.08-7.82
		C123.41,83,141.73,83,160.06,83z"/>
	<path class="st2" d="M121.1,136.09c48.21,0.87,95.42,8.13,141.64,21.98c48.73,14.61,94.15,36.07,135.95,65.09
		c49.9,34.63,90.87,77.82,123.53,128.99c2.21,3.46,2.13,5.29-1.58,7.33c-5.1,2.8-10.05,5.92-14.85,9.22
		c-3.26,2.23-4.92,1.66-7.03-1.68c-17.49-27.71-37.9-53.12-61.34-76.01c-45.64-44.57-99.01-76.76-158.99-98.16
		c-35.11-12.52-71.21-20.92-108.2-25.47c-19.84-2.44-39.77-4.01-59.77-3.29c-5.18,0.18-6.61-1.61-6.54-6.51
		c0.08-5.97-0.56-11.96-1.07-17.93c-0.22-2.6,0.59-3.65,3.25-3.59C111.1,136.18,116.1,136.09,121.1,136.09z"/>
	<path class="st2" d="M100.86,193.29c-1.72-4.36,0.86-5.21,5.26-5.44c83.4-4.42,160.75,15.97,232.91,57.13
		c30.79,17.56,58.66,39.1,84.27,63.66c21.71,20.82,40.97,43.66,58.8,67.82c2.8,3.8,2.43,5.79-1.53,8.15
		c-4.56,2.73-9.01,5.76-13.04,9.21c-3.97,3.39-6.01,1.95-8.54-1.67c-10.42-14.88-21.92-28.92-34.16-42.34
		c-43.12-47.29-94.15-83.21-153.78-106.67c-35.54-13.98-72.33-22.82-110.39-26.36c-17.59-1.64-35.19-2.69-52.83-1
		c-3.16,0.3-4.53-0.69-4.81-3.95C102.53,205.86,101.66,199.92,100.86,193.29z"/>
	<path class="st2" d="M126.35,232.86c72.28,1.53,139.64,20.1,201.39,58.17c48.52,29.91,87.95,69.22,120.31,115.92
		c2.37,3.42,2.11,5.26-1.41,7.39c-5.42,3.26-10.67,6.81-15.83,10.46c-2.18,1.54-3.43,1.22-4.84-0.86
		c-12.65-18.63-26.79-36.03-42.3-52.37c-15.17-16-31.62-30.47-49.4-43.47c-46.18-33.75-97.63-54.71-154.08-63.62
		c-22.96-3.62-46.04-4.39-69.2-3.33c-3.16,0.15-4.55-0.43-4.82-3.76c-0.54-6.46-1.3-12.92-2.24-19.33
		c-0.44-3.01,0.31-4.06,3.46-4.36C113.69,233.09,120,232.95,126.35,232.86z"/>
</g>
</svg>
